<svg width="64" height="64" viewBox="0 0 64 64" fill="none" xmlns="http://www.w3.org/2000/svg">
<rect width="64" height="64" fill="#F8F9FA"/>
<path d="M18.3651 22.8182L22.7596 36.6321H22.9283L27.3317 22.8182H31.593L25.3253 41H20.3714L14.0948 22.8182H18.3651ZM48.7983 29.1836H44.9098C44.8388 28.6805 44.6938 28.2337 44.4748 27.843C44.2558 27.4465 43.9747 27.1091 43.6314 26.831C43.2881 26.5528 42.8916 26.3397 42.4418 26.1918C41.9979 26.0438 41.5155 25.9698 40.9947 25.9698C40.0536 25.9698 39.2339 26.2036 38.5355 26.6712C37.8371 27.1328 37.2956 27.8075 36.9109 28.6953C36.5262 29.5772 36.3338 30.6484 36.3338 31.9091C36.3338 33.2053 36.5262 34.2943 36.9109 35.1761C37.3015 36.058 37.846 36.7238 38.5444 37.1737C39.2428 37.6235 40.0507 37.8484 40.968 37.8484C41.483 37.8484 41.9594 37.7803 42.3974 37.6442C42.8413 37.508 43.2348 37.3098 43.5781 37.0494C43.9214 36.783 44.2055 36.4605 44.4304 36.0817C44.6612 35.7029 44.821 35.2708 44.9098 34.7855L48.7983 34.8033C48.6977 35.6378 48.4461 36.4427 48.0437 37.218C47.6471 37.9875 47.1115 38.677 46.4368 39.2866C45.768 39.8903 44.969 40.3697 44.0398 40.7248C43.1165 41.074 42.0719 41.2486 40.9059 41.2486C39.2842 41.2486 37.8342 40.8816 36.5558 40.1477C35.2833 39.4138 34.2771 38.3514 33.5373 36.9606C32.8034 35.5697 32.4364 33.8859 32.4364 31.9091C32.4364 29.9264 32.8093 28.2396 33.555 26.8487C34.3008 25.4579 35.3129 24.3984 36.5913 23.6705C37.8697 22.9366 39.3079 22.5696 40.9059 22.5696C41.9594 22.5696 42.936 22.7176 43.8356 23.0135C44.7411 23.3094 45.5431 23.7415 46.2415 24.3097C46.9399 24.8719 47.508 25.5614 47.946 26.3782C48.3899 27.195 48.674 28.1301 48.7983 29.1836Z" fill="#7F7F7F"/>
</svg>
